<mxfile host="app.diagrams.net" agent="Mozilla/5.0 (Windows NT 10.0; Win64; x64; rv:128.0) Gecko/20100101 Firefox/128.0" version="26.2.14">
  <diagram id="C5RBs43oDa-KdzZeNtuy" name="Page-1">
    <mxGraphModel dx="1426" dy="773" grid="1" gridSize="10" guides="1" tooltips="1" connect="1" arrows="1" fold="1" page="1" pageScale="1" pageWidth="827" pageHeight="1169" background="light-dark(#FFFFFF,#3F673F)" math="0" shadow="0">
      <root>
        <mxCell id="WIyWlLk6GJQsqaUBKTNV-0" />
        <mxCell id="WIyWlLk6GJQsqaUBKTNV-1" parent="WIyWlLk6GJQsqaUBKTNV-0" />
        <mxCell id="WIyWlLk6GJQsqaUBKTNV-3" value="main" style="rounded=1;whiteSpace=wrap;html=1;fontSize=12;glass=0;strokeWidth=1;shadow=0;fillColor=#76608a;strokeColor=#432D57;fontFamily=Lucida Console;fontColor=#ffffff;" parent="WIyWlLk6GJQsqaUBKTNV-1" vertex="1">
          <mxGeometry x="350" y="70" width="120" height="50" as="geometry" />
        </mxCell>
        <mxCell id="FNKoBImQwWc6U7kva2Of-9" value="" style="endArrow=classic;startArrow=classic;html=1;rounded=0;fillColor=#76608a;strokeColor=#432D57;fontFamily=Lucida Console;" parent="WIyWlLk6GJQsqaUBKTNV-1" edge="1">
          <mxGeometry width="50" height="50" relative="1" as="geometry">
            <mxPoint x="470" y="90" as="sourcePoint" />
            <mxPoint x="550" y="90" as="targetPoint" />
          </mxGeometry>
        </mxCell>
        <mxCell id="FNKoBImQwWc6U7kva2Of-10" value="initboards" style="rounded=1;whiteSpace=wrap;html=1;fillColor=#76608a;strokeColor=#432D57;fontFamily=Lucida Console;fontColor=#ffffff;" parent="WIyWlLk6GJQsqaUBKTNV-1" vertex="1">
          <mxGeometry x="550" y="80" width="90" height="40" as="geometry" />
        </mxCell>
        <mxCell id="FNKoBImQwWc6U7kva2Of-12" value="" style="endArrow=classic;startArrow=classic;html=1;rounded=0;exitX=1;exitY=0.75;exitDx=0;exitDy=0;entryX=0;entryY=0.5;entryDx=0;entryDy=0;fillColor=#76608a;strokeColor=#432D57;fontFamily=Lucida Console;" parent="WIyWlLk6GJQsqaUBKTNV-1" source="WIyWlLk6GJQsqaUBKTNV-3" target="FNKoBImQwWc6U7kva2Of-13" edge="1">
          <mxGeometry width="50" height="50" relative="1" as="geometry">
            <mxPoint x="480" y="280" as="sourcePoint" />
            <mxPoint x="550" y="280" as="targetPoint" />
          </mxGeometry>
        </mxCell>
        <mxCell id="FNKoBImQwWc6U7kva2Of-13" value="getboard" style="rounded=1;whiteSpace=wrap;html=1;fillColor=#76608a;strokeColor=#432D57;fontFamily=Lucida Console;fontColor=#ffffff;" parent="WIyWlLk6GJQsqaUBKTNV-1" vertex="1">
          <mxGeometry x="535" y="130" width="120" height="60" as="geometry" />
        </mxCell>
        <mxCell id="FNKoBImQwWc6U7kva2Of-14" value="" style="endArrow=classic;html=1;rounded=0;exitX=0.5;exitY=1;exitDx=0;exitDy=0;fillColor=#76608a;strokeColor=#432D57;fontFamily=Lucida Console;" parent="WIyWlLk6GJQsqaUBKTNV-1" source="WIyWlLk6GJQsqaUBKTNV-3" edge="1">
          <mxGeometry width="50" height="50" relative="1" as="geometry">
            <mxPoint x="480" y="180" as="sourcePoint" />
            <mxPoint x="410" y="240" as="targetPoint" />
          </mxGeometry>
        </mxCell>
        <mxCell id="FNKoBImQwWc6U7kva2Of-16" value="" style="endArrow=classic;startArrow=classic;html=1;rounded=0;exitX=0.5;exitY=0;exitDx=0;exitDy=0;fillColor=#76608a;strokeColor=#432D57;fontFamily=Lucida Console;" parent="WIyWlLk6GJQsqaUBKTNV-1" source="FNKoBImQwWc6U7kva2Of-15" edge="1">
          <mxGeometry width="50" height="50" relative="1" as="geometry">
            <mxPoint x="460" y="400" as="sourcePoint" />
            <mxPoint x="409" y="300" as="targetPoint" />
          </mxGeometry>
        </mxCell>
        <mxCell id="FNKoBImQwWc6U7kva2Of-18" value="checkifvalid" style="rounded=1;whiteSpace=wrap;html=1;fillColor=#76608a;strokeColor=#432D57;fontFamily=Lucida Console;fontColor=#ffffff;" parent="WIyWlLk6GJQsqaUBKTNV-1" vertex="1">
          <mxGeometry x="470" y="390" width="120" height="60" as="geometry" />
        </mxCell>
        <mxCell id="FNKoBImQwWc6U7kva2Of-19" value="newgame_pregen" style="rounded=1;whiteSpace=wrap;html=1;fillColor=#76608a;strokeColor=#432D57;fontFamily=Lucida Console;fontColor=#ffffff;" parent="WIyWlLk6GJQsqaUBKTNV-1" vertex="1">
          <mxGeometry x="535" y="240" width="120" height="60" as="geometry" />
        </mxCell>
        <mxCell id="FNKoBImQwWc6U7kva2Of-20" value="newgame_insertboard" style="rounded=1;whiteSpace=wrap;html=1;fillColor=#76608a;strokeColor=#432D57;fontFamily=Lucida Console;fontColor=#ffffff;" parent="WIyWlLk6GJQsqaUBKTNV-1" vertex="1">
          <mxGeometry x="110" y="240" width="160" height="60" as="geometry" />
        </mxCell>
        <mxCell id="FNKoBImQwWc6U7kva2Of-21" value="newgame_genboard" style="rounded=1;whiteSpace=wrap;html=1;fillColor=#76608a;strokeColor=#432D57;fontFamily=Lucida Console;fontColor=#ffffff;" parent="WIyWlLk6GJQsqaUBKTNV-1" vertex="1">
          <mxGeometry x="170" y="360" width="130" height="60" as="geometry" />
        </mxCell>
        <mxCell id="FNKoBImQwWc6U7kva2Of-24" value="genboard" style="rounded=1;whiteSpace=wrap;html=1;fillColor=#76608a;strokeColor=#432D57;fontFamily=Lucida Console;fontColor=#ffffff;" parent="WIyWlLk6GJQsqaUBKTNV-1" vertex="1">
          <mxGeometry x="310" y="450" width="120" height="60" as="geometry" />
        </mxCell>
        <mxCell id="FNKoBImQwWc6U7kva2Of-25" value="calculatesolution" style="rounded=1;whiteSpace=wrap;html=1;fillColor=#76608a;strokeColor=#432D57;fontFamily=Lucida Console;fontColor=#ffffff;" parent="WIyWlLk6GJQsqaUBKTNV-1" vertex="1">
          <mxGeometry x="180" y="150" width="160" height="60" as="geometry" />
        </mxCell>
        <mxCell id="FNKoBImQwWc6U7kva2Of-26" value="" style="endArrow=classic;startArrow=classic;html=1;rounded=0;entryX=0.5;entryY=1;entryDx=0;entryDy=0;fillColor=#76608a;strokeColor=#432D57;exitX=1;exitY=0.5;exitDx=0;exitDy=0;fontFamily=Lucida Console;" parent="WIyWlLk6GJQsqaUBKTNV-1" source="FNKoBImQwWc6U7kva2Of-24" target="FNKoBImQwWc6U7kva2Of-18" edge="1">
          <mxGeometry width="50" height="50" relative="1" as="geometry">
            <mxPoint x="360" y="520" as="sourcePoint" />
            <mxPoint x="410" y="470" as="targetPoint" />
          </mxGeometry>
        </mxCell>
        <mxCell id="FNKoBImQwWc6U7kva2Of-27" value="" style="endArrow=classic;startArrow=classic;html=1;rounded=0;exitX=0;exitY=0.5;exitDx=0;exitDy=0;entryX=0.5;entryY=1;entryDx=0;entryDy=0;fillColor=#76608a;strokeColor=#432D57;fontFamily=Lucida Console;fontSize=11;" parent="WIyWlLk6GJQsqaUBKTNV-1" source="FNKoBImQwWc6U7kva2Of-24" target="FNKoBImQwWc6U7kva2Of-21" edge="1">
          <mxGeometry width="50" height="50" relative="1" as="geometry">
            <mxPoint x="220" y="490" as="sourcePoint" />
            <mxPoint x="270" y="440" as="targetPoint" />
          </mxGeometry>
        </mxCell>
        <mxCell id="FNKoBImQwWc6U7kva2Of-28" value="" style="endArrow=classic;html=1;rounded=0;entryX=0.25;entryY=1;entryDx=0;entryDy=0;exitX=1;exitY=0.25;exitDx=0;exitDy=0;fillColor=#76608a;strokeColor=#432D57;fontFamily=Lucida Console;" parent="WIyWlLk6GJQsqaUBKTNV-1" source="FNKoBImQwWc6U7kva2Of-21" target="FNKoBImQwWc6U7kva2Of-15" edge="1">
          <mxGeometry width="50" height="50" relative="1" as="geometry">
            <mxPoint x="300" y="380" as="sourcePoint" />
            <mxPoint x="340" y="340" as="targetPoint" />
          </mxGeometry>
        </mxCell>
        <mxCell id="FNKoBImQwWc6U7kva2Of-29" value="" style="endArrow=classic;html=1;rounded=0;exitX=0;exitY=0.75;exitDx=0;exitDy=0;entryX=0.75;entryY=0;entryDx=0;entryDy=0;fillColor=#76608a;strokeColor=#432D57;fontFamily=Lucida Console;" parent="WIyWlLk6GJQsqaUBKTNV-1" source="FNKoBImQwWc6U7kva2Of-15" target="FNKoBImQwWc6U7kva2Of-21" edge="1">
          <mxGeometry width="50" height="50" relative="1" as="geometry">
            <mxPoint x="290" y="390" as="sourcePoint" />
            <mxPoint x="340" y="340" as="targetPoint" />
          </mxGeometry>
        </mxCell>
        <mxCell id="FNKoBImQwWc6U7kva2Of-30" value="" style="endArrow=classic;startArrow=classic;html=1;rounded=0;entryX=0.25;entryY=0;entryDx=0;entryDy=0;fillColor=#76608a;strokeColor=#432D57;exitX=0.5;exitY=1;exitDx=0;exitDy=0;fontFamily=Lucida Console;" parent="WIyWlLk6GJQsqaUBKTNV-1" source="FNKoBImQwWc6U7kva2Of-25" target="FNKoBImQwWc6U7kva2Of-15" edge="1">
          <mxGeometry width="50" height="50" relative="1" as="geometry">
            <mxPoint x="330" y="190" as="sourcePoint" />
            <mxPoint x="380" y="170" as="targetPoint" />
          </mxGeometry>
        </mxCell>
        <mxCell id="FNKoBImQwWc6U7kva2Of-31" value="" style="endArrow=classic;html=1;rounded=0;entryX=0;entryY=0.75;entryDx=0;entryDy=0;exitX=1;exitY=0.75;exitDx=0;exitDy=0;fillColor=#76608a;strokeColor=#432D57;fontFamily=Lucida Console;" parent="WIyWlLk6GJQsqaUBKTNV-1" source="FNKoBImQwWc6U7kva2Of-15" target="FNKoBImQwWc6U7kva2Of-19" edge="1">
          <mxGeometry width="50" height="50" relative="1" as="geometry">
            <mxPoint x="460" y="340" as="sourcePoint" />
            <mxPoint x="510" y="290" as="targetPoint" />
          </mxGeometry>
        </mxCell>
        <mxCell id="FNKoBImQwWc6U7kva2Of-32" value="" style="endArrow=classic;html=1;rounded=0;exitX=0;exitY=0.25;exitDx=0;exitDy=0;entryX=1;entryY=0.25;entryDx=0;entryDy=0;fillColor=#76608a;strokeColor=#432D57;fontFamily=Lucida Console;" parent="WIyWlLk6GJQsqaUBKTNV-1" source="FNKoBImQwWc6U7kva2Of-19" target="FNKoBImQwWc6U7kva2Of-15" edge="1">
          <mxGeometry width="50" height="50" relative="1" as="geometry">
            <mxPoint x="540" y="300" as="sourcePoint" />
            <mxPoint x="590" y="250" as="targetPoint" />
          </mxGeometry>
        </mxCell>
        <mxCell id="FNKoBImQwWc6U7kva2Of-33" value="" style="endArrow=classic;html=1;rounded=0;entryX=1;entryY=0.5;entryDx=0;entryDy=0;fillColor=#76608a;strokeColor=#432D57;exitX=0;exitY=0.5;exitDx=0;exitDy=0;fontFamily=Lucida Console;" parent="WIyWlLk6GJQsqaUBKTNV-1" source="FNKoBImQwWc6U7kva2Of-15" target="FNKoBImQwWc6U7kva2Of-20" edge="1">
          <mxGeometry width="50" height="50" relative="1" as="geometry">
            <mxPoint x="350" y="280" as="sourcePoint" />
            <mxPoint x="360" y="240" as="targetPoint" />
          </mxGeometry>
        </mxCell>
        <mxCell id="FNKoBImQwWc6U7kva2Of-34" value="" style="endArrow=classic;html=1;rounded=0;entryX=0;entryY=0.25;entryDx=0;entryDy=0;fillColor=#76608a;strokeColor=#432D57;exitX=1;exitY=0.25;exitDx=0;exitDy=0;fontFamily=Lucida Console;" parent="WIyWlLk6GJQsqaUBKTNV-1" source="FNKoBImQwWc6U7kva2Of-20" target="FNKoBImQwWc6U7kva2Of-15" edge="1">
          <mxGeometry width="50" height="50" relative="1" as="geometry">
            <mxPoint x="190" y="270" as="sourcePoint" />
            <mxPoint x="240" y="220" as="targetPoint" />
          </mxGeometry>
        </mxCell>
        <mxCell id="FNKoBImQwWc6U7kva2Of-35" value="" style="endArrow=classic;startArrow=classic;html=1;rounded=0;exitX=0.5;exitY=0;exitDx=0;exitDy=0;fillColor=#76608a;strokeColor=#432D57;fontFamily=Lucida Console;" parent="WIyWlLk6GJQsqaUBKTNV-1" source="FNKoBImQwWc6U7kva2Of-18" target="FNKoBImQwWc6U7kva2Of-15" edge="1">
          <mxGeometry width="50" height="50" relative="1" as="geometry">
            <mxPoint x="530" y="390" as="sourcePoint" />
            <mxPoint x="409" y="300" as="targetPoint" />
          </mxGeometry>
        </mxCell>
        <mxCell id="FNKoBImQwWc6U7kva2Of-15" value="initwindow" style="rounded=1;whiteSpace=wrap;html=1;fillColor=#76608a;strokeColor=#432D57;fontFamily=Lucida Console;fontColor=#ffffff;" parent="WIyWlLk6GJQsqaUBKTNV-1" vertex="1">
          <mxGeometry x="354" y="240" width="120" height="60" as="geometry" />
        </mxCell>
        <mxCell id="EUUkid_NxYVwX5oRvpra-0" value="" style="endArrow=classic;startArrow=classic;html=1;rounded=0;entryX=0.5;entryY=1;entryDx=0;entryDy=0;exitX=0.5;exitY=0;exitDx=0;exitDy=0;strokeColor=light-dark(#432d57, #ededed);" edge="1" parent="WIyWlLk6GJQsqaUBKTNV-1" source="FNKoBImQwWc6U7kva2Of-19" target="FNKoBImQwWc6U7kva2Of-13">
          <mxGeometry width="50" height="50" relative="1" as="geometry">
            <mxPoint x="390" y="420" as="sourcePoint" />
            <mxPoint x="440" y="370" as="targetPoint" />
          </mxGeometry>
        </mxCell>
      </root>
    </mxGraphModel>
  </diagram>
</mxfile>
